<?xml version="1.0" encoding="utf-8"?>
<!-- Generator: Adobe Illustrator 23.0.6, SVG Export Plug-In . SVG Version: 6.00 Build 0)  -->
<svg version="1.0" id="Layer_1" xmlns="http://www.w3.org/2000/svg" xmlns:xlink="http://www.w3.org/1999/xlink" x="0px" y="0px"
	 viewBox="0 0 65.66 64.22" enable-background="new 0 0 65.66 64.22" xml:space="preserve">
<path fill="none" stroke="#FFFFFF" stroke-width="3" stroke-linecap="round" stroke-linejoin="round" stroke-miterlimit="10" d="
	M54.14,29.37c5.18,1.16,9.05,5.79,9.05,11.32c0,6.41-5.2,11.6-11.6,11.6H14.07c-6.41,0-11.6-4.56-11.6-10.97
	c0-5.48,3.8-10.08,8.91-11.29c-0.32-0.94-0.49-1.94-0.49-2.98c0-5.16,4.18-9.34,9.34-9.34c2.56,0,4.88,1.03,6.57,2.7l0,0
	c2.27-5.01,7.32-8.5,13.18-8.5c7.99,0,14.47,6.48,14.47,14.47C54.45,27.41,54.14,29.38,54.14,29.37L54.14,29.37z"/>
</svg>
