<?xml version="1.0" encoding="utf-8"?>
<!-- Generator: Adobe Illustrator 23.0.6, SVG Export Plug-In . SVG Version: 6.00 Build 0)  -->
<svg version="1.0" id="Layer_1" xmlns="http://www.w3.org/2000/svg" xmlns:xlink="http://www.w3.org/1999/xlink" x="0px" y="0px"
	 viewBox="0 0 65.66 64.22" enable-background="new 0 0 65.66 64.22" xml:space="preserve">
<path fill="none" stroke="#FFFFFF" stroke-width="3" stroke-linecap="round" stroke-linejoin="round" stroke-miterlimit="10" d="
	M43.3,39.01c3.85,0.86,6.73,4.3,6.73,8.41c0,4.76-3.86,8.62-8.62,8.62H13.52c-4.76,0-8.62-3.39-8.62-8.15
	c0-4.07,2.82-7.49,6.62-8.39c-0.23-0.69-0.36-1.44-0.36-2.21c0-3.83,3.11-6.94,6.94-6.94c1.9,0,3.63,0.77,4.88,2.01l0,0
	c1.69-3.72,5.44-6.31,9.79-6.31c5.94,0,10.75,4.81,10.75,10.75C43.53,37.55,43.3,39.01,43.3,39.01L43.3,39.01z"/>
<path fill="none" stroke="#FFFFFF" stroke-width="3" stroke-linecap="round" stroke-linejoin="round" stroke-miterlimit="10" d="
	M36.26,26.62c1.57-1.76,3.71-3.02,6.21-3.46c5.9-1.04,11.53,2.89,12.57,8.79c0.86,4.88-1.68,9.57-5.92,11.64"/>
<line fill="none" stroke="#FFFFFF" stroke-width="3" stroke-linecap="round" stroke-linejoin="round" stroke-miterlimit="10" x1="44.37" y1="15.67" x2="44.35" y2="11.46"/>
<line fill="none" stroke="#FFFFFF" stroke-width="3" stroke-linecap="round" stroke-linejoin="round" stroke-miterlimit="10" x1="57.8" y1="21.04" x2="60.76" y2="18.04"/>
<line fill="none" stroke="#FFFFFF" stroke-width="3" stroke-linecap="round" stroke-linejoin="round" stroke-miterlimit="10" x1="29.9" y1="21.04" x2="26.94" y2="18.04"/>
<line fill="none" stroke="#FFFFFF" stroke-width="3" stroke-linecap="round" stroke-linejoin="round" stroke-miterlimit="10" x1="59.11" y1="50.72" x2="56.15" y2="47.73"/>
</svg>
