<?xml version="1.0" encoding="utf-8"?>
<!-- Generator: Adobe Illustrator 23.0.6, SVG Export Plug-In . SVG Version: 6.00 Build 0)  -->
<svg version="1.0" id="Layer_1" xmlns="http://www.w3.org/2000/svg" xmlns:xlink="http://www.w3.org/1999/xlink" x="0px" y="0px"
	 viewBox="0 0 65.66 64.22" enable-background="new 0 0 65.66 64.22" xml:space="preserve">
<path fill="none" stroke="#FFFFFF" stroke-width="3" stroke-linecap="round" stroke-linejoin="round" stroke-miterlimit="10" d="
	M53.38,18.94c5,1.12,8.73,5.58,8.73,10.92c0,6.18-5.01,11.19-11.19,11.19H14.74c-6.18,0-11.19-4.4-11.19-10.58
	c0-5.29,3.67-9.72,8.59-10.89c-0.3-0.9-0.47-1.87-0.47-2.87c0-4.98,4.03-9.01,9.01-9.01c2.47,0,4.71,0.99,6.33,2.6v0
	c2.19-4.83,7.06-8.19,12.71-8.19c7.7,0,13.95,6.25,13.95,13.95C53.68,17.05,53.38,18.94,53.38,18.94L53.38,18.94z"/>
<path fill="#FFFFFF" d="M19.07,48.09c3.45,3.45,3.58,7.08,3.58,7.08c0,1.98-1.61,3.58-3.58,3.58c-1.98,0-3.58-1.61-3.58-3.58
	C15.48,55.16,15.62,51.53,19.07,48.09z"/>
<path fill="#FFFFFF" d="M46.73,48.09c3.45,3.45,3.59,7.08,3.59,7.08c0,1.98-1.61,3.58-3.59,3.58c-1.98,0-3.58-1.61-3.58-3.58
	C43.15,55.17,43.29,51.53,46.73,48.09z"/>
<path fill="#FFFFFF" d="M32.9,51.45c3.45,3.45,3.58,7.08,3.58,7.08c0,1.98-1.61,3.58-3.58,3.58c-1.98,0-3.58-1.61-3.58-3.58
	C29.32,58.53,29.45,54.9,32.9,51.45z"/>
</svg>
