<?xml version="1.0" encoding="utf-8"?>
<!-- Generator: Adobe Illustrator 23.0.6, SVG Export Plug-In . SVG Version: 6.00 Build 0)  -->
<svg version="1.0" id="Layer_1" xmlns="http://www.w3.org/2000/svg" xmlns:xlink="http://www.w3.org/1999/xlink" x="0px" y="0px"
	 viewBox="0 0 65.66 64.22" enable-background="new 0 0 65.66 64.22" xml:space="preserve">
<g>
	<path fill="none" stroke="#FFFFFF" stroke-width="3" stroke-linecap="round" stroke-linejoin="round" stroke-miterlimit="10" d="
		M49.65,32.58c0,9.14-7.41,16.56-16.56,16.56c-9.14,0-16.56-7.41-16.56-16.56c0-9.14,7.41-16.56,16.56-16.56
		C42.24,16.02,49.65,23.43,49.65,32.58z"/>
	
		<line fill="none" stroke="#FFFFFF" stroke-width="3" stroke-linecap="round" stroke-linejoin="round" stroke-miterlimit="10" x1="33.09" y1="8.01" x2="33.09" y2="2.8"/>
	
		<line fill="none" stroke="#FFFFFF" stroke-width="3" stroke-linecap="round" stroke-linejoin="round" stroke-miterlimit="10" x1="3.39" y1="32.58" x2="8.6" y2="32.58"/>
	
		<line fill="none" stroke="#FFFFFF" stroke-width="3" stroke-linecap="round" stroke-linejoin="round" stroke-miterlimit="10" x1="50.41" y1="49.9" x2="54.51" y2="54"/>
	
		<line fill="none" stroke="#FFFFFF" stroke-width="3" stroke-linecap="round" stroke-linejoin="round" stroke-miterlimit="10" x1="11.67" y1="11.16" x2="15.77" y2="15.26"/>
	
		<line fill="none" stroke="#FFFFFF" stroke-width="3" stroke-linecap="round" stroke-linejoin="round" stroke-miterlimit="10" x1="15.77" y1="49.9" x2="11.67" y2="54"/>
	
		<line fill="none" stroke="#FFFFFF" stroke-width="3" stroke-linecap="round" stroke-linejoin="round" stroke-miterlimit="10" x1="54.51" y1="11.16" x2="50.41" y2="15.26"/>
	<g>
		
			<line fill="none" stroke="#FFFFFF" stroke-width="3" stroke-linecap="round" stroke-linejoin="round" stroke-miterlimit="10" x1="50.42" y1="15.26" x2="54.52" y2="11.16"/>
		
			<line fill="none" stroke="#FFFFFF" stroke-width="3" stroke-linecap="round" stroke-linejoin="round" stroke-miterlimit="10" x1="11.67" y1="54" x2="15.77" y2="49.9"/>
		
			<line fill="none" stroke="#FFFFFF" stroke-width="3" stroke-linecap="round" stroke-linejoin="round" stroke-miterlimit="10" x1="50.36" y1="49.95" x2="54.46" y2="54.05"/>
		
			<line fill="none" stroke="#FFFFFF" stroke-width="3" stroke-linecap="round" stroke-linejoin="round" stroke-miterlimit="10" x1="11.62" y1="11.21" x2="15.72" y2="15.31"/>
		
			<line fill="none" stroke="#FFFFFF" stroke-width="3" stroke-linecap="round" stroke-linejoin="round" stroke-miterlimit="10" x1="33.04" y1="57.13" x2="33.04" y2="62.34"/>
		
			<line fill="none" stroke="#FFFFFF" stroke-width="3" stroke-linecap="round" stroke-linejoin="round" stroke-miterlimit="10" x1="33.04" y1="2.92" x2="33.04" y2="8.13"/>
		
			<line fill="none" stroke="#FFFFFF" stroke-width="3" stroke-linecap="round" stroke-linejoin="round" stroke-miterlimit="10" x1="8.55" y1="32.63" x2="3.33" y2="32.63"/>
		
			<line fill="none" stroke="#FFFFFF" stroke-width="3" stroke-linecap="round" stroke-linejoin="round" stroke-miterlimit="10" x1="62.75" y1="32.63" x2="57.54" y2="32.63"/>
	</g>
</g>
</svg>
